   [IMG]http://img692.imageshack.us/img692/6968/39148157.jpg[/IMG]


[color=blue][size=4][b]Chromeskull.Laid.to.Rest.2.2011.Unrated.DC.DVDRip.XVID.AC3.HQ.Hive-CM8[/b][/size][/color]


[b]Thx Hive

CM8 Doing It Right The First Time :D


Source: DVD9

Encode: 
DVD had great quality, there is no need to do a bdrip later on.
did the usual brightness, sharpness, rgb, denoise.
dvd also had deleted scenes and bloopers, which i attached as single files.
got very nice - enjoy

Video: 720x400 @bitrate 1800 2pass
Audio: English AC3 5.1 @320
Sample: yes, included
Bonus: yes, deleted scenes and bloopers[/b]


[url]http://www.imdb.com/title/tt1792799/[/url]


General
Complete name                    : Chromeskull.Laid.to.Rest.2.2011.DVDRip.XVID.AC3.HQ.Hive-CM8.avi
Format                           : AVI
Format/Info                      : Audio Video Interleave
File size                        : 1.39 GiB
Duration                         : 1h 33mn
Overall bit rate                 : 2 129 Kbps
Writing application              : Nandub v1.0rc2
Writing library                  : Nandub build 1853/release

Video
ID                               : 0
Format                           : MPEG-4 Visual
Format profile                   : Advanced Simple@L5
Format settings, BVOP            : 2
Format settings, QPel            : Yes
Format settings, GMC             : No warppoints
Format settings, Matrix          : Default (H.263)
Muxing mode                      : Packed bitstream
Codec ID                         : XVID
Codec ID/Hint                    : XviD
Duration                         : 1h 33mn
Bit rate                         : 1 800 Kbps
Width                            : 720 pixels
Height                           : 400 pixels
Display aspect ratio             : 16:9
Frame rate                       : 23.976 fps
Color space                      : YUV
Chroma subsampling               : 4:2:0
Bit depth                        : 8 bits
Scan type                        : Progressive
Compression mode                 : Lossy
Bits/(Pixel*Frame)               : 0.261
Stream size                      : 1.17 GiB (85%)
Writing library                  : XviD 1.2.1 (UTC 2008-12-04)

Audio
ID                               : 1
Format                           : AC-3
Format/Info                      : Audio Coding 3
Mode extension                   : CM (complete main)
Codec ID                         : 2000
Duration                         : 1h 33mn
Bit rate mode                    : Constant
Bit rate                         : 320 Kbps
Channel(s)                       : 6 channels
Channel positions                : Front: L C R, Side: L R, LFE
Sampling rate                    : 48.0 KHz
Bit depth                        : 16 bits
Compression mode                 : Lossy
Stream size                      : 214 MiB (15%)
Alignment                        : Split accross interleaves
Interleave, duration             : 42 ms (1.00 video frame)
Interleave, preload duration     : 500 ms


Plot:
The sequel to the 2009 horror hit "Laid to Rest" brings back ChromeSkull, who
barely escaped death in the first movie and is hell-bent on continuing where
he left off and forging a new path of terror and destruction.


Cast:
Brian Austin Green  ...   Preston
Thomas Dekker       ...   Tommy
Mimi Michaels       ...   Jess
Gail O'Grady        ...   Nancy
Johnathon Schaech   ...   Agent Sells
